# xmcd
#
# Track frame offsets:
#	150
#	16398
#	31514
#	44721
#	55349
#	69574
#	83573
#	100239
#	113651
#	130031
#	143950
#	157147
#	167543
#	183230
#	197182
#	198869
#
# Disc length: 2896 seconds
#
# Revision: 0
# Processed by: cddbd v1.5.2PL0 Copyright (c) Steve Scherf et al.
# Submitted via: audiograbber 1.83.01
#
DISCID=d40b4e10
DTITLE=Hillcrest - Hillcrest Pure Country 83
DYEAR=2017
DGENRE=
TTITLE0=From The Bottom of My Broken Heart -Lynn Anderson
TTITLE1=Going Going Gone -Andy Martin
TTITLE2=New Patches -Paul Allan Coons
TTITLE3=Wrong Number, Right Heart -Mary Rowan and Rowan DeCouycey
TTITLE4=Who Needs A Girl -Black Emmons
TTITLE5=Don´t Come Running Back To Me -Dave Sheriff and The Britt Pickers
TTITLE6=Love Just Flashed -Laural Mendes
TTITLE7=Home To Canada -Bonita Mercer
TTITLE8=I´ve Been Around -Tony Clarke
TTITLE9=Better in Heaven -Don Allen
TTITLE10=The Keys Bo Weast
TTITLE11=Walking The Floor Over You -Mary Resek
TTITLE12=Pony Up To the Bar -David McLachlan
TTITLE13=Rock Your World -Lexi Sims
TTITLE14=Otis ID
TTITLE15=That Old Chair -Otis Truax
EXTD=
EXTT0=
EXTT1=
EXTT2=
EXTT3=
EXTT4=
EXTT5=
EXTT6=
EXTT7=
EXTT8=
EXTT9=
EXTT10=
EXTT11=
EXTT12=
EXTT13=
EXTT14=
EXTT15=
PLAYORDER=
